<svg xmlns="http://www.w3.org/2000/svg" xmlns:xlink="http://www.w3.org/1999/xlink" width="500" zoomAndPan="magnify" viewBox="0 0 375 374.999991" height="500" preserveAspectRatio="xMidYMid meet" version="1.0"><defs><g/><clipPath id="b16e254584"><path d="M 173.3125 161.542969 L 213.257812 161.542969 L 213.257812 201.488281 L 173.3125 201.488281 Z M 173.3125 161.542969 " clip-rule="nonzero"/></clipPath><clipPath id="0486b2ccbc"><path d="M 159.445312 161.03125 L 213.761719 161.03125 L 213.761719 215.34375 L 159.445312 215.34375 Z M 159.445312 161.03125 " clip-rule="nonzero"/></clipPath></defs><g clip-path="url(#b16e254584)"><path fill="#a5b9c8" d="M 173.3125 161.542969 L 213.257812 161.542969 L 213.257812 201.488281 L 173.3125 201.488281 Z M 173.3125 161.542969 " fill-opacity="1" fill-rule="nonzero"/></g><g clip-path="url(#0486b2ccbc)"><path fill="#000000" d="M 213.742188 201.640625 L 213.75 201.613281 C 213.75 201.605469 213.75 201.597656 213.75 201.589844 C 213.75 201.574219 213.75 201.554688 213.75 201.539062 L 213.75 161.300781 C 213.75 161.285156 213.75 161.265625 213.75 161.25 C 213.75 161.242188 213.75 161.234375 213.75 161.226562 L 213.742188 161.199219 C 213.742188 161.191406 213.730469 161.183594 213.726562 161.171875 C 213.722656 161.164062 213.71875 161.160156 213.714844 161.152344 C 213.695312 161.121094 213.671875 161.097656 213.640625 161.078125 C 213.636719 161.074219 213.628906 161.070312 213.625 161.066406 L 213.597656 161.050781 L 213.570312 161.042969 L 213.546875 161.042969 C 213.527344 161.035156 213.507812 161.03125 213.488281 161.03125 L 173.253906 161.03125 C 173.238281 161.027344 173.21875 161.027344 173.203125 161.03125 L 173.179688 161.03125 L 173.152344 161.039062 L 173.125 161.054688 C 173.117188 161.058594 173.109375 161.058594 173.105469 161.066406 C 173.089844 161.074219 173.074219 161.085938 173.0625 161.097656 L 159.527344 174.648438 C 159.515625 174.660156 159.503906 174.671875 159.492188 174.6875 C 159.488281 174.695312 159.484375 174.703125 159.480469 174.710938 C 159.480469 174.71875 159.472656 174.726562 159.46875 174.734375 L 159.460938 174.761719 C 159.457031 174.769531 159.457031 174.777344 159.460938 174.785156 C 159.457031 174.804688 159.457031 174.820312 159.460938 174.839844 L 159.460938 215.074219 C 159.457031 215.089844 159.457031 215.109375 159.460938 215.125 C 159.457031 215.132812 159.457031 215.140625 159.460938 215.148438 L 159.46875 215.175781 C 159.472656 215.1875 159.476562 215.195312 159.480469 215.203125 C 159.484375 215.210938 159.488281 215.21875 159.492188 215.222656 C 159.511719 215.253906 159.539062 215.28125 159.566406 215.300781 C 159.574219 215.304688 159.582031 215.308594 159.589844 215.308594 L 159.613281 215.324219 L 159.640625 215.332031 L 159.664062 215.332031 C 159.683594 215.339844 159.699219 215.34375 159.71875 215.34375 L 199.953125 215.34375 C 199.972656 215.347656 199.988281 215.347656 200.007812 215.34375 L 200.027344 215.34375 L 200.054688 215.335938 L 200.082031 215.324219 C 200.089844 215.320312 200.097656 215.316406 200.105469 215.3125 C 200.117188 215.300781 200.132812 215.289062 200.144531 215.277344 L 213.679688 201.742188 C 213.695312 201.730469 213.707031 201.714844 213.714844 201.699219 C 213.71875 201.695312 213.722656 201.6875 213.726562 201.679688 C 213.730469 201.667969 213.738281 201.652344 213.742188 201.640625 Z M 173.527344 175.109375 L 199.679688 175.109375 L 199.679688 201.265625 L 173.527344 201.265625 Z M 200.226562 174.953125 L 213.21875 161.957031 L 213.21875 201.265625 L 200.226562 201.265625 Z M 199.839844 174.566406 L 173.527344 174.566406 L 173.527344 161.574219 L 212.832031 161.574219 Z M 172.984375 174.566406 L 160.375 174.566406 L 172.984375 161.957031 Z M 159.988281 175.109375 L 172.984375 175.109375 L 172.984375 201.425781 L 159.988281 214.417969 Z M 173.367188 201.808594 L 199.679688 201.808594 L 199.679688 214.800781 L 160.375 214.800781 Z M 200.226562 201.808594 L 212.832031 201.808594 L 200.226562 214.417969 Z M 200.226562 201.808594 " fill-opacity="1" fill-rule="nonzero"/></g><g fill="#000000" fill-opacity="1"><g transform="translate(170.286541, 201.58518)"><g><path d="M 20.46875 -26.859375 L 20.46875 -20.125 L 6.65625 -20.125 L 6.65625 -11.4375 L 6.46875 -11.4375 L -0.03125 -18.21875 L -0.03125 -26.859375 Z M 13.703125 -6.734375 L 13.703125 -15.078125 L 14.046875 -15.078125 L 20.46875 -9.796875 L 20.46875 0 L -0.03125 0 L -0.03125 -6.734375 Z M 13.703125 -6.734375 "/></g></g></g><g fill="#000000" fill-opacity="1"><g transform="translate(193.779652, 201.58518)"><g><path d="M 6.703125 -11.171875 L 13.28125 -19.140625 L 13.28125 -26.828125 L 19.828125 -26.828125 L 19.828125 -17.265625 L 16.609375 -13.359375 L 19.96875 -10.59375 L 19.96875 0 L 13.28125 0 L 13.28125 -10.59375 L 6.703125 -10.59375 L 6.703125 0 L 0 0 L 0 -26.828125 L 6.703125 -26.828125 Z M 6.703125 -11.171875 "/></g></g></g></svg>