<svg xmlns="http://www.w3.org/2000/svg" xmlns:xlink="http://www.w3.org/1999/xlink" width="50" zoomAndPan="magnify" viewBox="0 0 37.5 37.499999" height="50" preserveAspectRatio="xMidYMid meet" version="1.0"><defs><g/><clipPath id="3a385e6e93"><path d="M 1.046875 1.046875 L 35.832031 1.046875 L 35.832031 35.832031 L 1.046875 35.832031 Z M 1.046875 1.046875 " clip-rule="nonzero"/></clipPath></defs><g clip-path="url(#3a385e6e93)"><path fill="#000000" d="M 35.816406 27.054688 L 35.824219 27.035156 C 35.824219 27.03125 35.824219 27.027344 35.824219 27.023438 C 35.824219 27.011719 35.824219 27 35.824219 26.988281 L 35.824219 1.21875 C 35.824219 1.207031 35.824219 1.195312 35.824219 1.183594 C 35.824219 1.179688 35.824219 1.175781 35.824219 1.171875 L 35.816406 1.152344 C 35.816406 1.148438 35.8125 1.140625 35.808594 1.136719 C 35.808594 1.128906 35.804688 1.125 35.800781 1.121094 C 35.789062 1.101562 35.773438 1.085938 35.753906 1.074219 C 35.75 1.070312 35.746094 1.070312 35.746094 1.066406 L 35.726562 1.058594 L 35.710938 1.054688 L 35.695312 1.054688 C 35.683594 1.046875 35.671875 1.046875 35.65625 1.046875 L 9.886719 1.046875 C 9.878906 1.042969 9.867188 1.042969 9.855469 1.046875 L 9.839844 1.046875 L 9.824219 1.050781 L 9.804688 1.058594 C 9.800781 1.0625 9.796875 1.0625 9.792969 1.066406 C 9.78125 1.074219 9.773438 1.078125 9.765625 1.089844 L 1.097656 9.765625 C 1.085938 9.773438 1.082031 9.78125 1.074219 9.792969 C 1.070312 9.796875 1.070312 9.800781 1.066406 9.804688 C 1.066406 9.8125 1.0625 9.816406 1.058594 9.824219 L 1.054688 9.839844 C 1.050781 9.84375 1.050781 9.851562 1.054688 9.855469 C 1.050781 9.867188 1.050781 9.878906 1.054688 9.886719 L 1.054688 35.65625 C 1.050781 35.667969 1.050781 35.679688 1.054688 35.691406 C 1.050781 35.695312 1.050781 35.699219 1.054688 35.707031 L 1.058594 35.722656 C 1.0625 35.730469 1.0625 35.734375 1.066406 35.742188 C 1.070312 35.746094 1.070312 35.75 1.074219 35.753906 C 1.085938 35.773438 1.101562 35.789062 1.121094 35.800781 C 1.125 35.804688 1.128906 35.808594 1.136719 35.808594 L 1.152344 35.816406 L 1.171875 35.824219 L 1.183594 35.824219 C 1.195312 35.828125 1.207031 35.828125 1.21875 35.832031 L 26.988281 35.832031 C 27 35.832031 27.011719 35.832031 27.023438 35.832031 L 27.035156 35.832031 L 27.054688 35.824219 L 27.070312 35.816406 C 27.074219 35.816406 27.082031 35.8125 27.085938 35.808594 C 27.09375 35.804688 27.101562 35.796875 27.109375 35.789062 L 35.78125 27.117188 C 35.789062 27.109375 35.796875 27.101562 35.800781 27.09375 C 35.804688 27.089844 35.808594 27.082031 35.808594 27.078125 C 35.8125 27.070312 35.816406 27.0625 35.816406 27.054688 Z M 10.0625 10.0625 L 26.8125 10.0625 L 26.8125 26.8125 L 10.0625 26.8125 Z M 27.160156 9.960938 L 35.484375 1.640625 L 35.484375 26.8125 L 27.160156 26.8125 Z M 26.914062 9.714844 L 10.0625 9.714844 L 10.0625 1.394531 L 35.238281 1.394531 Z M 9.714844 9.714844 L 1.640625 9.714844 L 9.714844 1.640625 Z M 1.394531 10.0625 L 9.714844 10.0625 L 9.714844 26.914062 L 1.394531 35.238281 Z M 9.960938 27.160156 L 26.8125 27.160156 L 26.8125 35.484375 L 1.640625 35.484375 Z M 27.160156 27.160156 L 35.238281 27.160156 L 27.160156 35.238281 Z M 27.160156 27.160156 " fill-opacity="1" fill-rule="nonzero"/></g><g fill="#000000" fill-opacity="1"><g transform="translate(6.986328, 27.182473)"><g><path d="M 13.1875 -17.3125 L 13.1875 -12.96875 L 4.296875 -12.96875 L 4.296875 -7.375 L 4.171875 -7.375 L -0.03125 -11.734375 L -0.03125 -17.3125 Z M 8.828125 -4.34375 L 8.828125 -9.71875 L 9.046875 -9.71875 L 13.1875 -6.3125 L 13.1875 0 L -0.03125 0 L -0.03125 -4.34375 Z M 8.828125 -4.34375 "/></g></g></g><g fill="#000000" fill-opacity="1"><g transform="translate(22.127863, 27.182473)"><g><path d="M 4.3125 -7.203125 L 8.5625 -12.328125 L 8.5625 -17.28125 L 12.765625 -17.28125 L 12.765625 -11.125 L 10.703125 -8.609375 L 12.875 -6.828125 L 12.875 0 L 8.5625 0 L 8.5625 -6.828125 L 4.3125 -6.828125 L 4.3125 0 L 0 0 L 0 -17.28125 L 4.3125 -17.28125 Z M 4.3125 -7.203125 "/></g></g></g></svg>