<svg xmlns="http://www.w3.org/2000/svg" xmlns:xlink="http://www.w3.org/1999/xlink" width="50" zoomAndPan="magnify" viewBox="0 0 37.5 37.499999" height="50" preserveAspectRatio="xMidYMid meet" version="1.0"><defs><g/><clipPath id="9819856cb1"><path d="M 1.046875 1.046875 L 35.832031 1.046875 L 35.832031 35.832031 L 1.046875 35.832031 Z M 1.046875 1.046875 " clip-rule="nonzero"/></clipPath></defs><g clip-path="url(#9819856cb1)"><path fill="#ffffff" d="M 35.945312 27.148438 L 35.949219 27.132812 C 35.949219 27.125 35.949219 27.121094 35.949219 27.117188 C 35.953125 27.105469 35.953125 27.09375 35.949219 27.082031 L 35.949219 1.21875 C 35.953125 1.207031 35.953125 1.195312 35.949219 1.183594 C 35.949219 1.179688 35.949219 1.175781 35.949219 1.171875 L 35.945312 1.152344 C 35.945312 1.148438 35.9375 1.140625 35.9375 1.136719 C 35.933594 1.132812 35.929688 1.125 35.929688 1.121094 C 35.917969 1.101562 35.898438 1.085938 35.878906 1.074219 C 35.878906 1.070312 35.875 1.070312 35.871094 1.066406 L 35.855469 1.058594 L 35.835938 1.054688 L 35.820312 1.054688 C 35.808594 1.046875 35.796875 1.046875 35.785156 1.046875 L 9.921875 1.046875 C 9.910156 1.042969 9.898438 1.042969 9.886719 1.046875 L 9.871094 1.046875 L 9.855469 1.050781 L 9.835938 1.058594 C 9.832031 1.0625 9.828125 1.0625 9.824219 1.066406 C 9.8125 1.074219 9.804688 1.082031 9.796875 1.089844 L 1.097656 9.796875 C 1.089844 9.804688 1.082031 9.8125 1.074219 9.824219 C 1.070312 9.828125 1.070312 9.832031 1.066406 9.835938 C 1.066406 9.84375 1.0625 9.847656 1.058594 9.855469 L 1.054688 9.871094 C 1.050781 9.875 1.050781 9.882812 1.054688 9.886719 C 1.050781 9.898438 1.050781 9.910156 1.054688 9.921875 L 1.054688 35.785156 C 1.050781 35.796875 1.050781 35.804688 1.054688 35.816406 C 1.050781 35.824219 1.050781 35.828125 1.054688 35.832031 L 1.058594 35.851562 C 1.0625 35.855469 1.0625 35.863281 1.066406 35.867188 C 1.070312 35.871094 1.070312 35.875 1.074219 35.878906 C 1.085938 35.898438 1.101562 35.917969 1.121094 35.929688 C 1.125 35.933594 1.132812 35.933594 1.136719 35.9375 L 1.152344 35.945312 L 1.171875 35.949219 L 1.183594 35.949219 C 1.195312 35.953125 1.207031 35.957031 1.21875 35.957031 L 27.082031 35.957031 C 27.09375 35.960938 27.105469 35.960938 27.117188 35.957031 L 27.132812 35.957031 L 27.148438 35.953125 L 27.167969 35.945312 C 27.171875 35.941406 27.175781 35.941406 27.179688 35.9375 C 27.1875 35.929688 27.199219 35.921875 27.207031 35.914062 L 35.90625 27.214844 C 35.914062 27.207031 35.921875 27.195312 35.929688 27.1875 C 35.933594 27.183594 35.933594 27.179688 35.9375 27.175781 C 35.941406 27.164062 35.941406 27.15625 35.945312 27.148438 Z M 10.09375 10.09375 L 26.90625 10.09375 L 26.90625 26.90625 L 10.09375 26.90625 Z M 27.257812 9.992188 L 35.609375 1.640625 L 35.609375 26.90625 L 27.257812 26.90625 Z M 27.011719 9.746094 L 10.09375 9.746094 L 10.09375 1.394531 L 35.363281 1.394531 Z M 9.746094 9.746094 L 1.640625 9.746094 L 9.746094 1.640625 Z M 1.394531 10.09375 L 9.746094 10.09375 L 9.746094 27.011719 L 1.394531 35.363281 Z M 9.992188 27.257812 L 26.90625 27.257812 L 26.90625 35.609375 L 1.640625 35.609375 Z M 27.257812 27.257812 L 35.363281 27.257812 L 27.257812 35.363281 Z M 27.257812 27.257812 " fill-opacity="1" fill-rule="nonzero"/></g><g fill="#ffffff" fill-opacity="1"><g transform="translate(6.986328, 27.182473)"><g><path d="M 13.1875 -17.3125 L 13.1875 -12.96875 L 4.296875 -12.96875 L 4.296875 -7.375 L 4.171875 -7.375 L -0.03125 -11.734375 L -0.03125 -17.3125 Z M 8.828125 -4.34375 L 8.828125 -9.71875 L 9.046875 -9.71875 L 13.1875 -6.3125 L 13.1875 0 L -0.03125 0 L -0.03125 -4.34375 Z M 8.828125 -4.34375 "/></g></g></g><g fill="#ffffff" fill-opacity="1"><g transform="translate(22.127863, 27.182473)"><g><path d="M 4.3125 -7.203125 L 8.5625 -12.328125 L 8.5625 -17.28125 L 12.765625 -17.28125 L 12.765625 -11.125 L 10.703125 -8.609375 L 12.875 -6.828125 L 12.875 0 L 8.5625 0 L 8.5625 -6.828125 L 4.3125 -6.828125 L 4.3125 0 L 0 0 L 0 -17.28125 L 4.3125 -17.28125 Z M 4.3125 -7.203125 "/></g></g></g></svg>